<svg width="479.20628662109374px" height="131.6px" xmlns="http://www.w3.org/2000/svg" viewBox="10.39685668945313 9.200000000000003 479.20628662109374 131.6" style="background: rgba(0, 0, 0, 0);" preserveAspectRatio="xMidYMid"><defs><filter id="editing-hole" x="-100%" y="-100%" width="300%" height="300%"><feFlood flood-color="#000000" result="black"></feFlood><feMorphology operator="dilate" radius="2" in="SourceGraphic" result="erode"></feMorphology><feGaussianBlur in="erode" stdDeviation="4" result="blur"></feGaussianBlur><feOffset in="blur" dx="2" dy="2" result="offset"></feOffset><feComposite operator="atop" in="offset" in2="black" result="merge"></feComposite><feComposite operator="in" in="merge" in2="SourceGraphic" result="inner-shadow"></feComposite></filter></defs><g filter="url(#editing-hole)"><g transform="translate(81.60497641563416, 106.36000061035156)"><path d="M38.69-22.59L38.69-11.19L38.69-11.19Q38.69-9.50 38.09-7.55L38.09-7.55L38.09-7.55Q37.50-5.59 36.17-3.92L36.17-3.92L36.17-3.92Q34.84-2.25 32.70-1.13L32.70-1.13L32.70-1.13Q30.56 0 27.50 0L27.50 0L12.84 0L12.84 0Q11.16 0 9.20-0.59L9.20-0.59L9.20-0.59Q7.25-1.19 5.58-2.52L5.58-2.52L5.58-2.52Q3.91-3.84 2.78-5.98L2.78-5.98L2.78-5.98Q1.66-8.13 1.66-11.19L1.66-11.19L1.66-11.19Q1.66-12.88 2.25-14.84L2.25-14.84L2.25-14.84Q2.84-16.81 4.17-18.48L4.17-18.48L4.17-18.48Q5.50-20.16 7.64-21.28L7.64-21.28L7.64-21.28Q9.78-22.41 12.84-22.41L12.84-22.41L27.50-22.41L27.50-14.66L12.84-14.66L12.84-14.66Q11.19-14.66 10.28-13.64L10.28-13.64L10.28-13.64Q9.38-12.63 9.38-11.13L9.38-11.13L9.38-11.13Q9.38-9.53 10.42-8.64L10.42-8.64L10.42-8.64Q11.47-7.75 12.91-7.75L12.91-7.75L27.50-7.75L27.50-7.75Q29.16-7.75 30.06-8.75L30.06-8.75L30.06-8.75Q30.97-9.75 30.97-11.25L30.97-11.25L30.97-22.59L30.97-22.59Q30.97-24.19 29.98-25.13L29.98-25.13L29.98-25.13Q29-26.06 27.50-26.06L27.50-26.06L9.66-26.06L9.66-33.78L27.50-33.78L27.50-33.78Q29.19-33.78 31.14-33.19L31.14-33.19L31.14-33.19Q33.09-32.59 34.77-31.27L34.77-31.27L34.77-31.27Q36.44-29.94 37.56-27.80L37.56-27.80L37.56-27.80Q38.69-25.66 38.69-22.59L38.69-22.59ZM53.88-48.06L53.88-40.72L45.75-40.72L45.75-48.06L53.88-48.06ZM53.88-33.78L53.88 3.25L53.88 3.25Q53.88 5.34 53.34 7.02L53.34 7.02L53.34 7.02Q52.81 8.69 51.94 9.95L51.94 9.95L51.94 9.95Q51.06 11.22 49.91 12.11L49.91 12.11L49.91 12.11Q48.75 13 47.48 13.56L47.48 13.56L47.48 13.56Q46.22 14.13 44.94 14.39L44.94 14.39L44.94 14.39Q43.66 14.66 42.50 14.66L42.50 14.66L27.84 14.66L27.84 6.53L42.50 6.53L42.50 6.53Q44.13 6.53 44.94 5.69L44.94 5.69L44.94 5.69Q45.75 4.84 45.75 3.25L45.75 3.25L45.75-33.78L53.88-33.78ZM69.91-48.06L69.91-40.72L61.78-40.72L61.78-48.06L69.91-48.06ZM69.91-33.78L69.91 0L61.78 0L61.78-33.78L69.91-33.78ZM108.41-33.78L108.41-25.66L94.22-25.66L94.22 0L86 0L86-25.66L75.44-25.66L75.44-33.78L86-33.78L86-44.81L94.22-44.81L94.22-33.78L108.41-33.78ZM151-33.78L151 3.25L151 3.25Q151 5.34 150.47 7.02L150.47 7.02L150.47 7.02Q149.94 8.69 149.06 9.95L149.06 9.95L149.06 9.95Q148.19 11.22 147.03 12.11L147.03 12.11L147.03 12.11Q145.88 13 144.61 13.56L144.61 13.56L144.61 13.56Q143.34 14.13 142.06 14.39L142.06 14.39L142.06 14.39Q140.78 14.66 139.63 14.66L139.63 14.66L124.97 14.66L124.97 6.53L139.63 6.53L139.63 6.53Q141.25 6.53 142.06 5.69L142.06 5.69L142.06 5.69Q142.88 4.84 142.88 3.25L142.88 3.25L142.88-33.78L151-33.78ZM139.63-8.13L139.63 0L124.97 0L124.97 0Q123.22 0 121.23-0.59L121.23-0.59L121.23-0.59Q119.25-1.19 117.53-2.55L117.53-2.55L117.53-2.55Q115.81-3.91 114.69-6.08L114.69-6.08L114.69-6.08Q113.56-8.25 113.56-11.41L113.56-11.41L113.56-33.78L121.69-33.78L121.69-11.41L121.69-11.41Q121.69-9.81 122.53-8.97L122.53-8.97L122.53-8.97Q123.38-8.13 125.03-8.13L125.03-8.13L139.63-8.13ZM193.63-22.59L193.63-11.19L193.63-11.19Q193.63-9.50 193.03-7.55L193.03-7.55L193.03-7.55Q192.44-5.59 191.11-3.92L191.11-3.92L191.11-3.92Q189.78-2.25 187.64-1.13L187.64-1.13L187.64-1.13Q185.50 0 182.44 0L182.44 0L167.78 0L167.78 0Q166.09 0 164.14-0.59L164.14-0.59L164.14-0.59Q162.19-1.19 160.52-2.52L160.52-2.52L160.52-2.52Q158.84-3.84 157.72-5.98L157.72-5.98L157.72-5.98Q156.59-8.13 156.59-11.19L156.59-11.19L156.59-11.19Q156.59-12.88 157.19-14.84L157.19-14.84L157.19-14.84Q157.78-16.81 159.11-18.48L159.11-18.48L159.11-18.48Q160.44-20.16 162.58-21.28L162.58-21.28L162.58-21.28Q164.72-22.41 167.78-22.41L167.78-22.41L182.44-22.41L182.44-14.66L167.78-14.66L167.78-14.66Q166.13-14.66 165.22-13.64L165.22-13.64L165.22-13.64Q164.31-12.63 164.31-11.13L164.31-11.13L164.31-11.13Q164.31-9.53 165.36-8.64L165.36-8.64L165.36-8.64Q166.41-7.75 167.84-7.75L167.84-7.75L182.44-7.75L182.44-7.75Q184.09-7.75 185-8.75L185-8.75L185-8.75Q185.91-9.75 185.91-11.25L185.91-11.25L185.91-22.59L185.91-22.59Q185.91-24.19 184.92-25.13L184.92-25.13L184.92-25.13Q183.94-26.06 182.44-26.06L182.44-26.06L164.59-26.06L164.59-33.78L182.44-33.78L182.44-33.78Q184.13-33.78 186.08-33.19L186.08-33.19L186.08-33.19Q188.03-32.59 189.70-31.27L189.70-31.27L189.70-31.27Q191.38-29.94 192.50-27.80L192.50-27.80L192.50-27.80Q193.63-25.66 193.63-22.59L193.63-22.59ZM237.63-48.06L237.63-11.41L237.63-11.41Q237.63-9.31 237.09-7.64L237.09-7.64L237.09-7.64Q236.56-5.97 235.69-4.70L235.69-4.70L235.69-4.70Q234.81-3.44 233.66-2.55L233.66-2.55L233.66-2.55Q232.50-1.66 231.23-1.09L231.23-1.09L231.23-1.09Q229.97-0.53 228.67-0.27L228.67-0.27L228.67-0.27Q227.38 0 226.22 0L226.22 0L211.56 0L211.56 0Q209.47 0 207.81-0.53L207.81-0.53L207.81-0.53Q206.16-1.06 204.89-1.95L204.89-1.95L204.89-1.95Q203.63-2.84 202.73-4L202.73-4L202.73-4Q201.84-5.16 201.28-6.42L201.28-6.42L201.28-6.42Q200.72-7.69 200.45-8.98L200.45-8.98L200.45-8.98Q200.19-10.28 200.19-11.41L200.19-11.41L200.19-22.41L200.19-22.41Q200.19-25.53 201.33-27.70L201.33-27.70L201.33-27.70Q202.47-29.88 204.17-31.23L204.17-31.23L204.17-31.23Q205.88-32.59 207.88-33.19L207.88-33.19L207.88-33.19Q209.88-33.78 211.56-33.78L211.56-33.78L226.22-33.78L226.22-25.66L211.63-25.66L211.63-25.66Q210-25.66 209.16-24.83L209.16-24.83L209.16-24.83Q208.31-24 208.31-22.41L208.31-22.41L208.31-11.47L208.31-11.47Q208.31-9.81 209.14-8.97L209.14-8.97L209.14-8.97Q209.97-8.13 211.56-8.13L211.56-8.13L226.22-8.13L226.22-8.13Q227.88-8.13 228.69-8.97L228.69-8.97L228.69-8.97Q229.50-9.81 229.50-11.41L229.50-11.41L229.50-48.06L237.63-48.06ZM280.25-22.59L280.25-11.19L280.25-11.19Q280.25-9.50 279.66-7.55L279.66-7.55L279.66-7.55Q279.06-5.59 277.73-3.92L277.73-3.92L277.73-3.92Q276.41-2.25 274.27-1.13L274.27-1.13L274.27-1.13Q272.13 0 269.06 0L269.06 0L254.41 0L254.41 0Q252.72 0 250.77-0.59L250.77-0.59L250.77-0.59Q248.81-1.19 247.14-2.52L247.14-2.52L247.14-2.52Q245.47-3.84 244.34-5.98L244.34-5.98L244.34-5.98Q243.22-8.13 243.22-11.19L243.22-11.19L243.22-11.19Q243.22-12.88 243.81-14.84L243.81-14.84L243.81-14.84Q244.41-16.81 245.73-18.48L245.73-18.48L245.73-18.48Q247.06-20.16 249.20-21.28L249.20-21.28L249.20-21.28Q251.34-22.41 254.41-22.41L254.41-22.41L269.06-22.41L269.06-14.66L254.41-14.66L254.41-14.66Q252.75-14.66 251.84-13.64L251.84-13.64L251.84-13.64Q250.94-12.63 250.94-11.13L250.94-11.13L250.94-11.13Q250.94-9.53 251.98-8.64L251.98-8.64L251.98-8.64Q253.03-7.75 254.47-7.75L254.47-7.75L269.06-7.75L269.06-7.75Q270.72-7.75 271.63-8.75L271.63-8.75L271.63-8.75Q272.53-9.75 272.53-11.25L272.53-11.25L272.53-22.59L272.53-22.59Q272.53-24.19 271.55-25.13L271.55-25.13L271.55-25.13Q270.56-26.06 269.06-26.06L269.06-26.06L251.22-26.06L251.22-33.78L269.06-33.78L269.06-33.78Q270.75-33.78 272.70-33.19L272.70-33.19L272.70-33.19Q274.66-32.59 276.33-31.27L276.33-31.27L276.33-31.27Q278-29.94 279.13-27.80L279.13-27.80L279.13-27.80Q280.25-25.66 280.25-22.59L280.25-22.59ZM318.88-33.78L327.50-33.78L327.50-33.78Q326.13-29.50 324.28-25.34L324.28-25.34L324.28-25.34Q322.44-21.19 320.05-17.42L320.05-17.42L320.05-17.42Q317.66-13.66 314.70-10.45L314.70-10.45L314.70-10.45Q311.75-7.25 308.17-4.92L308.17-4.92L308.17-4.92Q304.59-2.59 300.39-1.27L300.39-1.27L300.39-1.27Q296.19 0.06 291.28 0.06L291.28 0.06L291.28 0.06Q290.44 0.06 289.69-0.25L289.69-0.25L289.69-0.25Q288.94-0.56 288.38-1.11L288.38-1.11L288.38-1.11Q287.81-1.66 287.50-2.39L287.50-2.39L287.50-2.39Q287.19-3.13 287.19-3.97L287.19-3.97L287.19-33.78L295.31-33.78L295.31-8.38L295.31-8.38Q298.28-8.38 301.02-9.66L301.02-9.66L301.02-9.66Q303.75-10.94 306.19-13.05L306.19-13.05L306.19-13.05Q308.63-15.16 310.70-17.84L310.70-17.84L310.70-17.84Q312.78-20.53 314.41-23.36L314.41-23.36L314.41-23.36Q316.03-26.19 317.17-28.91L317.17-28.91L317.17-28.91Q318.31-31.63 318.88-33.78L318.88-33.78ZM335.13-4.09L335.13-4.09L335.13-4.09Q335.13-3.25 334.80-2.52L334.80-2.52L334.80-2.52Q334.47-1.78 333.92-1.23L333.92-1.23L333.92-1.23Q333.38-0.69 332.64-0.38L332.64-0.38L332.64-0.38Q331.91-0.06 331.09-0.06L331.09-0.06L331.09-0.06Q330.25-0.06 329.52-0.38L329.52-0.38L329.52-0.38Q328.78-0.69 328.23-1.23L328.23-1.23L328.23-1.23Q327.69-1.78 327.38-2.52L327.38-2.52L327.38-2.52Q327.06-3.25 327.06-4.09L327.06-4.09L327.06-4.09Q327.06-4.91 327.38-5.64L327.38-5.64L327.38-5.64Q327.69-6.38 328.23-6.92L328.23-6.92L328.23-6.92Q328.78-7.47 329.52-7.80L329.52-7.80L329.52-7.80Q330.25-8.13 331.09-8.13L331.09-8.13L331.09-8.13Q331.91-8.13 332.64-7.80L332.64-7.80L332.64-7.80Q333.38-7.47 333.92-6.92L333.92-6.92L333.92-6.92Q334.47-6.38 334.80-5.64L334.80-5.64L334.80-5.64Q335.13-4.91 335.13-4.09Z" fill="#ccc"></path></g></g><style>text {
  font-size: 70px;
  font-family: Arial Black;
  dominant-baseline: central;
  text-anchor: middle;
}</style></svg>