<svg version="1.1" id="Layer_1" xmlns="http://www.w3.org/2000/svg" xmlns:xlink="http://www.w3.org/1999/xlink" x="0px" y="0px"
	 width="270" height="250" viewBox="0 0 24 24" enable-background="new 0 0 466 95" xml:space="preserve">
<path fill="#000000" opacity="1.000000" stroke="none" 
	d="
M169.000000,96.000000 
	C134.979111,96.000000 100.958214,96.000000 66.183182,95.721230 
	C71.995613,88.993614 77.129730,81.696396 80.086716,72.826012 
	C85.517975,56.533268 81.737984,39.854706 83.218819,23.204100 
	C77.517418,23.204100 72.450577,23.204100 67.354988,23.204100 
	C65.166763,46.189713 72.019661,70.216522 58.248837,90.816269 
	C59.960083,92.683311 61.480042,94.341652 63.000000,96.000000 
	C42.372204,96.000000 21.744408,96.000000 1.058306,96.000000 
	C1.058306,64.431854 1.058306,32.863571 1.058306,1.000000 
	C26.020121,1.000000 51.041401,1.000000 76.525543,1.414835 
	C75.741508,2.220002 74.388290,2.419311 73.270424,3.041475 
	C71.117149,4.239915 68.296204,5.209780 67.185371,7.111580 
	C64.740631,11.297086 66.040375,15.605639 69.489349,17.816273 
	C72.622963,19.824772 79.363533,19.387165 81.462303,17.038971 
	C83.950142,14.255470 83.400696,8.452765 80.577316,4.979108 
	C79.718956,3.923059 79.507660,2.341092 79.000000,1.000000 
	C208.260574,1.000000 337.521149,1.000000 466.890869,1.000000 
	C466.890869,32.575760 466.890869,64.152023 466.890869,96.000000 
	C368.979279,96.000000 270.958282,96.000000 172.180359,95.706741 
	C172.546860,93.815742 173.901550,92.332138 174.755859,90.601532 
	C179.864639,80.252449 185.156723,69.978134 189.811234,59.424660 
	C195.076324,47.486725 199.734436,35.281082 204.734604,23.000025 
	C202.384323,23.000025 200.339981,23.277020 198.400696,22.943350 
	C194.139206,22.210115 192.533783,24.212559 191.347046,28.059971 
	C188.780212,36.381557 185.670746,44.535759 182.479294,53.623985 
	C178.694855,44.685375 175.281143,36.587654 171.836838,28.502974 
	C170.300659,24.897192 168.491516,22.440424 163.596283,22.834635 
	C155.876480,23.456310 148.069870,23.000000 139.915283,23.000000 
	C139.915283,16.450285 139.915283,10.372506 139.915283,4.238273 
	C134.449203,4.238273 129.380432,4.238273 123.925186,4.238273 
	C123.925186,10.545920 123.925186,16.627216 123.925186,23.071226 
	C120.794952,23.071226 118.036392,23.071226 115.218773,23.071226 
	C115.218773,25.192263 115.218773,26.931026 115.218773,29.053904 
	C118.175163,29.053904 120.920784,29.053904 124.039688,29.053904 
	C124.039688,43.503738 124.039688,57.572266 124.039688,71.788445 
	C129.495392,71.788445 134.563599,71.788445 140.015869,71.788445 
	C140.015869,57.516209 140.015869,43.448814 140.015869,28.385277 
	C145.166916,28.385277 149.936310,28.385277 155.151901,28.385277 
	C160.811508,40.906338 167.031586,54.247986 172.778244,67.790520 
	C173.745605,70.070168 173.350189,73.486847 172.394974,75.909126 
	C170.301590,81.217674 167.445557,86.225479 165.124069,90.906281 
	C166.589813,92.832550 167.794907,94.416283 169.000000,96.000000 
M448.459351,59.077206 
	C448.359711,59.385067 448.260040,59.692928 448.027679,60.782139 
	C448.335052,62.223351 448.642426,63.664566 449.007904,65.797241 
	C450.658112,67.236649 452.308319,68.676064 454.377106,70.770233 
	C459.018982,72.172546 461.687195,69.475357 464.521759,65.928917 
	C464.625610,65.627945 464.729492,65.326973 465.263702,64.181610 
	C465.120270,62.447025 464.976837,60.712440 464.872009,58.457890 
	C464.593658,58.265133 464.315338,58.072372 463.740662,57.234085 
	C459.622131,51.824120 455.811523,51.444370 450.307159,56.201225 
	C449.857880,57.098442 449.408630,57.995659 448.459351,59.077206 
M285.969177,22.001036 
	C282.527588,23.624361 278.628204,24.671219 275.727173,26.975185 
	C265.556091,35.052979 265.123535,48.947807 269.112488,60.065460 
	C271.916107,67.879501 283.906586,75.023109 291.655731,73.939651 
	C298.425201,72.993149 304.389587,70.408150 307.957397,63.271969 
	C311.157318,68.329521 313.045105,74.770569 320.999847,71.360847 
	C320.999847,50.140354 320.999847,28.688173 320.999847,7.235993 
	C320.999847,6.283497 320.999847,5.331002 320.999847,4.205000 
	C315.520660,4.205000 310.451324,4.205000 305.020508,4.205000 
	C305.020508,11.438109 305.020508,18.478867 305.020508,25.666506 
	C296.617859,21.999916 296.617859,21.999916 285.969177,22.001036 
M39.281002,25.024576 
	C30.694790,18.659248 19.949993,20.751558 13.129716,25.451281 
	C4.941483,31.093637 0.955857,44.092545 3.415852,54.015915 
	C5.741604,63.397770 10.874637,70.477119 20.365454,72.552391 
	C27.189432,74.044533 34.573246,74.230476 40.625290,69.055443 
	C42.127525,72.345734 48.219067,73.037987 56.746834,71.423584 
	C56.746834,55.341709 56.746834,39.269394 56.746834,23.566463 
	C49.276321,20.517923 47.199589,26.266726 44.426754,31.091320 
	C42.745426,28.968029 41.336601,27.188873 39.281002,25.024576 
M221.989868,22.017902 
	C216.590729,24.438442 211.815598,27.334206 208.893982,32.999001 
	C205.219849,40.122795 204.411652,47.733833 206.339035,54.955189 
	C207.698196,60.047523 211.103699,65.509178 215.213531,68.761185 
	C223.758698,75.522743 233.493546,74.583473 242.912704,69.607986 
	C244.028412,72.338432 249.380493,73.002045 258.771057,71.468102 
	C258.771057,55.385983 258.771057,39.298553 258.771057,23.589783 
	C250.991547,20.140289 250.010101,27.598354 246.495621,31.111670 
	C245.351593,29.550066 244.523438,28.127237 243.421219,26.964102 
	C237.650482,20.874344 230.531235,20.184412 221.989868,22.017902 
M358.669769,72.836830 
	C360.972198,71.402725 363.274597,69.968628 365.785767,68.404503 
	C365.939941,69.564850 366.093445,70.720108 366.224915,71.709656 
	C371.304382,71.709656 376.050598,71.709656 380.766296,71.709656 
	C380.766296,55.347382 380.766296,39.276554 380.766296,23.473858 
	C373.141602,20.512547 371.974365,27.265739 369.003143,31.333733 
	C360.584076,16.495359 340.431549,20.122002 333.205933,29.962343 
	C328.046967,36.988190 327.226288,44.468597 328.184692,52.170723 
	C329.421417,62.109768 334.714478,69.807457 345.019989,72.360611 
	C349.089630,73.368843 353.543579,72.825943 358.669769,72.836830 
M426.962250,51.340073 
	C430.549805,41.963108 434.137360,32.586143 437.804932,23.000000 
	C435.304901,23.000000 433.124512,23.179012 430.984924,22.959864 
	C427.384705,22.591112 425.695221,23.655306 424.609589,27.551880 
	C421.691498,38.025555 418.019775,48.289261 414.316925,59.649845 
	C411.020294,49.442513 408.017456,40.054394 404.953491,30.686260 
	C402.436188,22.989487 402.404022,23.000010 394.273895,23.000000 
	C391.662048,22.999998 389.050201,23.000000 386.031769,23.000000 
	C390.766296,35.830635 395.508789,48.245525 399.923889,60.775780 
	C404.007690,72.365799 403.853333,72.420113 415.841461,72.000648 
	C416.007751,71.994827 416.215515,72.064789 416.334503,71.989548 
	C417.422638,71.301727 419.061462,70.829865 419.479553,69.844994 
	C421.976440,63.963203 424.190857,57.961487 426.962250,51.340073 
M109.000000,56.496696 
	C109.000000,45.401592 109.000000,34.306488 109.000000,23.287861 
	C103.353271,23.287861 98.281845,23.287861 93.285522,23.287861 
	C93.285522,39.646076 93.285522,55.714832 93.285522,71.711952 
	C98.648621,71.711952 103.720375,71.711952 109.000000,71.711952 
	C109.000000,66.782196 109.000000,62.138737 109.000000,56.496696 
M109.058655,8.525277 
	C106.819077,3.522596 101.632812,1.223938 97.204300,3.271187 
	C92.919655,5.251925 91.414612,10.603842 93.798210,15.383206 
	C95.431244,18.657587 100.203514,20.357758 104.462440,18.789541 
	C108.895088,17.157347 110.567780,13.751244 109.058655,8.525277 
z"/>
<path fill="#FFFFFF" opacity="1.000000" stroke="none" 
	d="
M169.375000,96.000000 
	C167.794907,94.416283 166.589813,92.832550 165.124069,90.906281 
	C167.445557,86.225479 170.301590,81.217674 172.394974,75.909126 
	C173.350189,73.486847 173.745605,70.070168 172.778244,67.790520 
	C167.031586,54.247986 160.811508,40.906338 155.151901,28.385277 
	C149.936310,28.385277 145.166916,28.385277 140.015869,28.385277 
	C140.015869,43.448814 140.015869,57.516209 140.015869,71.788445 
	C134.563599,71.788445 129.495392,71.788445 124.039688,71.788445 
	C124.039688,57.572266 124.039688,43.503738 124.039688,29.053904 
	C120.920784,29.053904 118.175163,29.053904 115.218773,29.053904 
	C115.218773,26.931026 115.218773,25.192263 115.218773,23.071226 
	C118.036392,23.071226 120.794952,23.071226 123.925186,23.071226 
	C123.925186,16.627216 123.925186,10.545920 123.925186,4.238273 
	C129.380432,4.238273 134.449203,4.238273 139.915283,4.238273 
	C139.915283,10.372506 139.915283,16.450285 139.915283,23.000000 
	C148.069870,23.000000 155.876480,23.456310 163.596283,22.834635 
	C168.491516,22.440424 170.300659,24.897192 171.836838,28.502974 
	C175.281143,36.587654 178.694855,44.685375 182.479294,53.623985 
	C185.670746,44.535759 188.780212,36.381557 191.347046,28.059971 
	C192.533783,24.212559 194.139206,22.210115 198.400696,22.943350 
	C200.339981,23.277020 202.384323,23.000025 204.734604,23.000025 
	C199.734436,35.281082 195.076324,47.486725 189.811234,59.424660 
	C185.156723,69.978134 179.864639,80.252449 174.755859,90.601532 
	C173.901550,92.332138 172.546860,93.815742 171.711700,95.706741 
	C171.250000,96.000000 170.500000,96.000000 169.375000,96.000000 
z"/>
<path fill="#FFFFFF" opacity="1.000000" stroke="none" 
	d="
M63.375000,96.000000 
	C61.480042,94.341652 59.960083,92.683311 58.248837,90.816269 
	C72.019661,70.216522 65.166763,46.189713 67.354988,23.204100 
	C72.450577,23.204100 77.517418,23.204100 83.218819,23.204100 
	C81.737984,39.854706 85.517975,56.533268 80.086716,72.826012 
	C77.129730,81.696396 71.995613,88.993614 65.714523,95.721230 
	C65.250000,96.000000 64.500000,96.000000 63.375000,96.000000 
z"/>
<path fill="#FFFFFF" opacity="1.000000" stroke="none" 
	d="
M78.666672,1.000000 
	C79.507660,2.341092 79.718956,3.923059 80.577316,4.979108 
	C83.400696,8.452765 83.950142,14.255470 81.462303,17.038971 
	C79.363533,19.387165 72.622963,19.824772 69.489349,17.816273 
	C66.040375,15.605639 64.740631,11.297086 67.185371,7.111580 
	C68.296204,5.209780 71.117149,4.239915 73.270424,3.041475 
	C74.388290,2.419311 75.741508,2.220002 76.994202,1.414835 
	C77.444443,1.000000 77.888893,1.000000 78.666672,1.000000 
z"/>
<path fill="#FFFFFF" opacity="1.000000" stroke="none" 
	d="
M286.420380,22.000553 
	C296.617859,21.999916 296.617859,21.999916 305.020508,25.666506 
	C305.020508,18.478867 305.020508,11.438109 305.020508,4.205000 
	C310.451324,4.205000 315.520660,4.205000 320.999847,4.205000 
	C320.999847,5.331002 320.999847,6.283497 320.999847,7.235993 
	C320.999847,28.688173 320.999847,50.140354 320.999847,71.360847 
	C313.045105,74.770569 311.157318,68.329521 307.957397,63.271969 
	C304.389587,70.408150 298.425201,72.993149 291.655731,73.939651 
	C283.906586,75.023109 271.916107,67.879501 269.112488,60.065460 
	C265.123535,48.947807 265.556091,35.052979 275.727173,26.975185 
	C278.628204,24.671219 282.527588,23.624361 286.420380,22.000553 
M283.000061,43.825172 
	C283.011353,49.514339 282.677551,55.172974 285.801056,60.445202 
	C287.704468,63.657970 289.922729,66.147102 293.716370,65.906029 
	C297.374908,65.673538 300.445038,63.954391 301.989960,60.237137 
	C305.713531,51.277809 305.608582,42.420547 300.941406,33.882473 
	C297.543365,27.666098 289.465668,27.672276 286.094299,33.908485 
	C284.604767,36.663757 284.005005,39.900047 283.000061,43.825172 
z"/>
<path fill="#FFFFFF" opacity="1.000000" stroke="none" 
	d="
M39.604389,25.217148 
	C41.336601,27.188873 42.745426,28.968029 44.426754,31.091320 
	C47.199589,26.266726 49.276321,20.517923 56.746834,23.566463 
	C56.746834,39.269394 56.746834,55.341709 56.746834,71.423584 
	C48.219067,73.037987 42.127525,72.345734 40.625290,69.055443 
	C34.573246,74.230476 27.189432,74.044533 20.365454,72.552391 
	C10.874637,70.477119 5.741604,63.397770 3.415852,54.015915 
	C0.955857,44.092545 4.941483,31.093637 13.129716,25.451281 
	C19.949993,20.751558 30.694790,18.659248 39.604389,25.217148 
M34.485737,30.948877 
	C28.488096,27.594217 25.039516,28.507654 21.886986,34.641155 
	C17.352194,43.463966 18.123873,52.469421 22.113592,61.134808 
	C24.591913,66.517540 32.670921,67.044968 36.142540,62.284214 
	C41.639580,54.745926 43.243420,38.837543 34.485737,30.948877 
z"/>
<path fill="#FFFFFF" opacity="1.000000" stroke="none" 
	d="
M222.409698,22.009539 
	C230.531235,20.184412 237.650482,20.874344 243.421219,26.964102 
	C244.523438,28.127237 245.351593,29.550066 246.495621,31.111670 
	C250.010101,27.598354 250.991547,20.140289 258.771057,23.589783 
	C258.771057,39.298553 258.771057,55.385983 258.771057,71.468102 
	C249.380493,73.002045 244.028412,72.338432 242.912704,69.607986 
	C233.493546,74.583473 223.758698,75.522743 215.213531,68.761185 
	C211.103699,65.509178 207.698196,60.047523 206.339035,54.955189 
	C204.411652,47.733833 205.219849,40.122795 208.893982,32.999001 
	C211.815598,27.334206 216.590729,24.438442 222.409698,22.009539 
M224.319809,60.850380 
	C231.585678,68.059563 238.884476,66.754227 241.391861,56.770611 
	C242.943573,50.592201 242.243484,43.631676 241.454514,37.156235 
	C240.905685,32.651878 237.494034,29.104504 232.473648,29.110472 
	C227.435913,29.116459 224.302200,32.815647 223.153519,37.149750 
	C221.135147,44.765224 220.895294,52.573574 224.319809,60.850380 
z"/>
<path fill="#FFFFFF" opacity="1.000000" stroke="none" 
	d="
M358.246155,72.913078 
	C353.543579,72.825943 349.089630,73.368843 345.019989,72.360611 
	C334.714478,69.807457 329.421417,62.109768 328.184692,52.170723 
	C327.226288,44.468597 328.046967,36.988190 333.205933,29.962343 
	C340.431549,20.122002 360.584076,16.495359 369.003143,31.333733 
	C371.974365,27.265739 373.141602,20.512547 380.766296,23.473858 
	C380.766296,39.276554 380.766296,55.347382 380.766296,71.709656 
	C376.050598,71.709656 371.304382,71.709656 366.224915,71.709656 
	C366.093445,70.720108 365.939941,69.564850 365.785767,68.404503 
	C363.274597,69.968628 360.972198,71.402725 358.246155,72.913078 
M357.284363,64.972794 
	C359.251953,62.757679 361.862396,60.843567 363.066925,58.271149 
	C366.711823,50.487015 366.020752,42.491867 362.901276,34.630959 
	C361.405487,30.861578 358.021484,28.810974 354.602112,29.280083 
	C351.876923,29.653948 348.495483,31.962355 347.138855,34.383369 
	C342.310516,42.999958 342.640411,52.115692 347.067810,60.851471 
	C348.887970,64.442902 352.035675,66.651649 357.284363,64.972794 
z"/>
<path fill="#FFFFFF" opacity="1.000000" stroke="none" 
	d="
M426.731140,51.670033 
	C424.190857,57.961487 421.976440,63.963203 419.479553,69.844994 
	C419.061462,70.829865 417.422638,71.301727 416.334503,71.989548 
	C416.215515,72.064789 416.007751,71.994827 415.841461,72.000648 
	C403.853333,72.420113 404.007690,72.365799 399.923889,60.775780 
	C395.508789,48.245525 390.766296,35.830635 386.031769,23.000000 
	C389.050201,23.000000 391.662048,22.999998 394.273895,23.000000 
	C402.404022,23.000010 402.436188,22.989487 404.953491,30.686260 
	C408.017456,40.054394 411.020294,49.442513 414.316925,59.649845 
	C418.019775,48.289261 421.691498,38.025555 424.609589,27.551880 
	C425.695221,23.655306 427.384705,22.591112 430.984924,22.959864 
	C433.124512,23.179012 435.304901,23.000000 437.804932,23.000000 
	C434.137360,32.586143 430.549805,41.963108 426.731140,51.670033 
z"/>
<path fill="#FFFFFF" opacity="1.000000" stroke="none" 
	d="
M109.000000,56.995987 
	C109.000000,62.138737 109.000000,66.782196 109.000000,71.711952 
	C103.720375,71.711952 98.648621,71.711952 93.285522,71.711952 
	C93.285522,55.714832 93.285522,39.646076 93.285522,23.287861 
	C98.281845,23.287861 103.353271,23.287861 109.000000,23.287861 
	C109.000000,34.306488 109.000000,45.401592 109.000000,56.995987 
z"/>
<path fill="#FFFFFF" opacity="1.000000" stroke="none" 
	d="
M109.344025,8.813558 
	C110.567780,13.751244 108.895088,17.157347 104.462440,18.789541 
	C100.203514,20.357758 95.431244,18.657587 93.798210,15.383206 
	C91.414612,10.603842 92.919655,5.251925 97.204300,3.271187 
	C101.632812,1.223938 106.819077,3.522596 109.344025,8.813558 
z"/>
<path fill="#FF0303" opacity="1.000000" stroke="none" 
	d="
M464.833374,58.977856 
	C464.976837,60.712440 465.120270,62.447025 464.854584,64.735397 
	C464.216858,65.520248 464.081085,65.796890 464.038147,66.119102 
	C461.687195,69.475357 459.018982,72.172546 454.149994,70.088890 
	C452.265198,67.973618 450.607513,66.539688 448.949768,65.105766 
	C448.642426,63.664566 448.335052,62.223351 448.303528,60.391113 
	C448.579407,60.000092 449.000000,60.000000 449.329193,59.954826 
	C450.069000,58.590923 450.479584,57.272198 450.890167,55.953468 
	C455.811523,51.444370 459.622131,51.824120 463.956116,57.782249 
	C464.316010,58.624065 464.536621,58.839878 464.833374,58.977856 
z"/>
<path fill="#FF0202" opacity="1.000000" stroke="none" 
	d="
M448.978851,65.451500 
	C450.607513,66.539688 452.265198,67.973618 453.940704,69.761513 
	C452.308319,68.676064 450.658112,67.236649 448.978851,65.451500 
z"/>
<path fill="#FF0202" opacity="1.000000" stroke="none" 
	d="
M450.598663,56.077347 
	C450.479584,57.272198 450.069000,58.590923 449.325012,59.677826 
	C448.980896,59.261627 448.970154,59.077255 448.959381,58.892876 
	C449.408630,57.995659 449.857880,57.098442 450.598663,56.077347 
z"/>
<path fill="#FF0202" opacity="1.000000" stroke="none" 
	d="
M464.852692,58.717873 
	C464.536621,58.839878 464.316010,58.624065 464.104279,58.105015 
	C464.315338,58.072372 464.593658,58.265133 464.852692,58.717873 
z"/>
<path fill="#FF0202" opacity="1.000000" stroke="none" 
	d="
M448.709351,58.985043 
	C448.970154,59.077255 448.980896,59.261627 448.995850,59.723000 
	C449.000000,60.000000 448.579407,60.000092 448.369904,60.000443 
	C448.260040,59.692928 448.359711,59.385067 448.709351,58.985043 
z"/>
<path fill="#FF0202" opacity="1.000000" stroke="none" 
	d="
M464.279968,66.024010 
	C464.081085,65.796890 464.216858,65.520248 464.639404,65.157593 
	C464.729492,65.326973 464.625610,65.627945 464.279968,66.024010 
z"/>
<path fill="#000000" opacity="1.000000" stroke="none" 
	d="
M283.000671,43.371567 
	C284.005005,39.900047 284.604767,36.663757 286.094299,33.908485 
	C289.465668,27.672276 297.543365,27.666098 300.941406,33.882473 
	C305.608582,42.420547 305.713531,51.277809 301.989960,60.237137 
	C300.445038,63.954391 297.374908,65.673538 293.716370,65.906029 
	C289.922729,66.147102 287.704468,63.657970 285.801056,60.445202 
	C282.677551,55.172974 283.011353,49.514339 283.000671,43.371567 
z"/>
<path fill="#000000" opacity="1.000000" stroke="none" 
	d="
M34.879467,30.988438 
	C43.243420,38.837543 41.639580,54.745926 36.142540,62.284214 
	C32.670921,67.044968 24.591913,66.517540 22.113592,61.134808 
	C18.123873,52.469421 17.352194,43.463966 21.886986,34.641155 
	C25.039516,28.507654 28.488096,27.594217 34.879467,30.988438 
z"/>
<path fill="#000000" opacity="1.000000" stroke="none" 
	d="
M224.165100,60.486763 
	C220.895294,52.573574 221.135147,44.765224 223.153519,37.149750 
	C224.302200,32.815647 227.435913,29.116459 232.473648,29.110472 
	C237.494034,29.104504 240.905685,32.651878 241.454514,37.156235 
	C242.243484,43.631676 242.943573,50.592201 241.391861,56.770611 
	C238.884476,66.754227 231.585678,68.059563 224.165100,60.486763 
z"/>
<path fill="#000000" opacity="1.000000" stroke="none" 
	d="
M356.899658,65.007690 
	C352.035675,66.651649 348.887970,64.442902 347.067810,60.851471 
	C342.640411,52.115692 342.310516,42.999958 347.138855,34.383369 
	C348.495483,31.962355 351.876923,29.653948 354.602112,29.280083 
	C358.021484,28.810974 361.405487,30.861578 362.901276,34.630959 
	C366.020752,42.491867 366.711823,50.487015 363.066925,58.271149 
	C361.862396,60.843567 359.251953,62.757679 356.899658,65.007690 
z"/>
</svg>