<svg xmlns="http://www.w3.org/2000/svg" viewBox="0 0 25 31.25" x="0px" y="0px"><g><path d="M15.57,14.54a3.26459,3.26459,0,0,1-.02,1H12.9a5.48946,5.48946,0,0,1-5.3-4.06c.25312-.02906.76982-.01842,1.03-.02a4.51327,4.51327,0,0,0,4.27,3.08Zm2,.97a5.50247,5.50247,0,0,1-5.47,4.95H7.9801C1.03916,20.27.57689,10.35947,7.43,9.49A5.50314,5.50314,0,0,1,12.9,4.54h4.12C23.976,4.7326,24.40723,14.66072,17.57,15.51ZM12.1,10.46l-3.68.00006c-6.20874-.29329-6.69209,8.72583-.44,8.99994H12.1A4.50018,4.50018,0,0,0,12.1,10.46Zm4.92-4.92H12.9A4.50817,4.50817,0,0,0,8.44,9.46H12.1a5.50067,5.50067,0,0,1,5.48,5.04C23.04061,13.79618,22.61778,5.58488,17.02,5.54Z"/></g><text x="0" y="40" fill="#000000" font-size="5px" font-weight="bold" font-family="'Helvetica Neue', Helvetica, Arial-Unicode, Arial, Sans-serif">Created by Gendis Studio</text><text x="0" y="45" fill="#000000" font-size="5px" font-weight="bold" font-family="'Helvetica Neue', Helvetica, Arial-Unicode, Arial, Sans-serif">from the Noun Project</text></svg>